<svg xmlns="http://www.w3.org/2000/svg" width="24" height="24" xmlns:v="https://vecta.io/nano" fill="#FFF"><path d="M12 22C6.5 22 2 17.5 2 12a.94.94 0 0 1 1-1 .94.94 0 0 1 1 1c0 4.4 3.6 8 8 8s8-3.6 8-8-3.6-8-8-8C9.3 4 6.8 5.3 5.4 7.6c-.4.4-1 .5-1.4.2-.5-.3-.6-.9-.3-1.4C5.5 3.7 8.7 2 12 2c5.5 0 10 4.5 10 10s-4.5 10-10 10zm0-9a.94.94 0 0 1-1-1V7a.94.94 0 0 1 1-1 .94.94 0 0 1 1 1v5a.94.94 0 0 1-1 1z"/><path d="M15 16c-.3 0-.5-.1-.7-.3l-3-3c-.4-.4-.4-1 0-1.4s1-.4 1.4 0l3 3c.4.4.4 1 0 1.4-.2.2-.4.3-.7.3zM8 8H4a.94.94 0 0 1-1-1V3a.94.94 0 0 1 1-1 .94.94 0 0 1 1 1v3h3a.94.94 0 0 1 1 1 .94.94 0 0 1-1 1z"/></svg>
