<svg xmlns="http://www.w3.org/2000/svg" viewBox="0 0 1626.16 1626.16">
  <g fill-rule="evenodd" clip-rule="evenodd">
    <path d="M1177.91 383.24c36.63-38.45 98.7-37.83 132.99 9.53 38.17-26.02 77.9-29.99 115.25-.7 37.6 29.46 45.05 68.63 25.99 112.8 45.85 11.54 76.48 38.95 87.22 84.56 10.57 44.93-3.42 83.36-38.5 114.47 2.97 3.19 5.32 5.88 7.84 8.4 26.61 26.66 53.23 53.3 79.9 79.9 5.86 5.83 10.02 12.13 9.94 20.95a26.2 26.2 0 0 1-6.38 17.36c-1.93 2.29-4.17 4.32-6.29 6.44-249.34 249.35-498.7 498.7-748.06 748.04a89.8 89.8 0 0 1-8.86 8.03c-10.44 7.96-23 7.4-32.83-1.33-1.75-1.54-3.32-3.27-4.97-4.92L38.83 834.45c-1.65-1.64-3.37-3.23-4.9-4.98a25.59 25.59 0 0 1-.54-33c1.91-2.3 4.2-4.28 6.32-6.4L788.5 41.29c2.35-2.35 4.6-4.84 7.13-7 10.47-8.94 24.2-9.02 34.7-.19 2.54 2.14 4.78 4.64 7.14 7 110.78 110.76 221.55 221.53 332.29 332.34 2.81 2.82 5.13 6.14 8.16 9.8zM66.11 814.86c3.42 3.73 6.34 7.18 9.53 10.37 241.31 241.36 482.65 482.69 723.99 724.02 12.7 12.71 14.2 12.7 27.2-.3l723.32-723.32c1.88-1.89 3.91-3.65 5.6-5.7 1.32-1.63 2.21-3.6 3.45-5.68-11.7-2.13-1484.74-1.7-1493.08.6zM980.5 303.1c4.93 4.37 9.58 8.09 13.77 12.27 120.22 120.14 240.4 240.33 360.58 360.51 2.12 2.13 4.19 4.3 6.37 6.36 22.63 21.32 49.33 31.34 80.4 27.6 46.84-5.64 82.4-46.02 82.62-93.12.23-48.34-34.11-88.3-81.6-94.88-6.49-.9-13-1.5-21-2.42 3.22-4.73 5.73-8.5 8.34-12.21 8.67-12.33 13.45-26.02 13.88-41.06.87-30.77-17.96-58.99-46.7-70.4-29.03-11.53-61.12-3.99-82.15 19.28-2.77 3.06-5.6 6.06-9.25 10.02-12.47-32.97-33.48-52.7-68.72-50.9-30.85 1.57-49.66 19.8-60.14 49.14-3.35-3.2-6.22-5.83-8.97-8.58L825.03 71.83c-10.33-10.32-13.42-10.47-22.98-.93-142.15 142.05-284.3 284.12-426.42 426.2-1.87 1.88-3.46 4.03-5.19 6.06l1.21 1.27L608.1 370.3c45.61 27.98 90.98 55.8 136.34 83.64L980.5 303.1z"/>
    <path fill="#FF0" d="M66.12 814.86c8.34-2.3 1481.38-2.74 1493.08-.61-1.24 2.08-2.13 4.05-3.46 5.67-1.68 2.06-3.7 3.82-5.6 5.7l-723.3 723.32c-13 13-14.5 13.02-27.22.31C558.3 1307.92 316.95 1066.6 75.64 825.23c-3.19-3.19-6.11-6.64-9.52-10.37zm741.62 379.69c22.98-1.2 40.56-2.36 57.12-9.48 11.68-5.02 18.64-12.84 19.23-26.41.95-21.94 2.9-43.84 4.55-65.76 1.62-21.57 3.41-43.13 5.05-64.7 2.29-30.22 4.33-60.44 6.84-90.63.85-10.23-3.02-17.73-11.58-22.46-6.63-3.68-13.69-7.13-20.99-8.99-36.14-9.2-72.5-9.35-108.65-.08-7.91 2.03-15.57 5.84-22.7 9.94-8.14 4.7-11.58 12.34-10.48 22.04 1.06 9.26 1.5 18.58 2.2 27.88 3.17 41.82 6.32 83.64 9.51 125.46 1.85 24.23 3.84 48.45 5.59 72.7.47 6.52 3.3 11.76 8.54 15.03 5.87 3.66 12.13 7.47 18.73 9 13.87 3.2 28.07 4.96 37.04 6.46zm5.07 28.79c-43.95.16-79.36 35.74-78.9 79.67.43 41.74 32.9 78.78 80 78.9 43.95.1 78.66-35.95 78.78-79.99.12-43.22-36.58-79.93-79.88-78.58z"/>
    <path fill="#FFF" d="M980.5 303.1 744.43 453.94 608.1 370.3 371.65 504.43l-1.2-1.27c1.72-2.03 3.3-4.18 5.18-6.06A2677324.2 2677324.2 0 0 1 802.05 70.9c9.56-9.54 12.65-9.4 22.97.93l342.9 342.88c2.76 2.75 5.63 5.38 8.98 8.58 10.48-29.35 29.3-47.57 60.14-49.14 35.23-1.8 56.25 17.93 68.72 50.9 3.65-3.96 6.48-6.96 9.24-10.02 21.04-23.27 53.13-30.81 82.15-19.29 28.75 11.42 47.58 39.65 46.7 70.41-.43 15.04-5.2 28.73-13.87 41.06-2.6 3.7-5.12 7.48-8.35 12.2 8 .92 14.52 1.54 21 2.44 47.5 6.57 81.84 46.53 81.61 94.87-.22 47.1-35.78 87.48-82.62 93.12-31.07 3.74-57.77-6.28-80.4-27.6-2.18-2.06-4.25-4.23-6.38-6.35C1234.66 555.7 1114.5 435.5 994.27 315.37c-4.19-4.18-8.84-7.9-13.77-12.27zm371.78 313.37c16 2.96 30.33-3.5 39.48-17.22 13.1-19.66 14.35-40.41 3.01-61.31-7.22-13.3-19.72-20.71-33.13-19.4 15.07 6.94 26.2 16.04 30.58 31.06 4.16 14.27 3.1 28.34-3.47 41.74-6.9 14.1-20.26 19.97-36.47 25.13z"/>
    <path d="M807.74 1194.55c-8.97-1.5-23.17-3.25-37.04-6.46-6.6-1.53-12.86-5.34-18.73-9-5.24-3.27-8.08-8.51-8.54-15.04-1.75-24.24-3.74-48.46-5.59-72.69-3.2-41.82-6.34-83.64-9.51-125.47-.7-9.29-1.14-18.62-2.2-27.87-1.1-9.7 2.33-17.35 10.48-22.04 7.13-4.1 14.78-7.91 22.7-9.94 36.14-9.27 72.5-9.12 108.65.08 7.3 1.86 14.35 5.31 21 8.98 8.55 4.74 12.42 12.24 11.57 22.47-2.51 30.19-4.56 60.41-6.85 90.62-1.63 21.57-3.43 43.14-5.04 64.71-1.64 21.91-3.6 43.82-4.55 65.76-.59 13.57-7.55 21.39-19.23 26.4-16.57 7.13-34.14 8.3-57.12 9.49zm5.07 28.79c43.3-1.35 80 35.36 79.88 78.58-.12 44.04-34.83 80.09-78.79 79.98-47.1-.11-79.56-37.15-80-78.9-.45-43.92 34.96-79.5 78.91-79.66zm539.47-606.87c16.21-5.16 29.56-11.02 36.47-25.13 6.56-13.4 7.63-27.47 3.47-41.74-4.38-15.02-15.51-24.12-30.58-31.07 13.4-1.3 25.9 6.1 33.13 19.4 11.34 20.9 10.1 41.66-3.01 61.32-9.14 13.72-23.48 20.18-39.48 17.22z"/>
  </g>
</svg>
