<?xml version="1.0" encoding="utf-8"?>
<svg version="1.1" id="Layer_1" x="0px" y="0px" width="1626.163px" height="1626.163px" viewBox="0 0 1626.163 1626.163" enable-background="new 0 0 1626.163 1626.163" xmlns="http://www.w3.org/2000/svg">
  <g transform="matrix(1, 0, 0, 1, -22.194231, -5.056714)">
    <path fill-rule="evenodd" clip-rule="evenodd" d="M1200.104,388.292c36.634-38.449,98.704-37.828,132.986,9.537 c38.171-26.02,77.896-29.991,115.253-0.708c37.592,29.468,45.047,68.636,25.987,112.798c45.855,11.548,76.481,38.961,87.22,84.564 c10.578,44.931-3.416,83.365-38.493,114.47c2.966,3.192,5.317,5.887,7.838,8.411c26.614,26.65,53.232,53.298,79.907,79.888 c5.852,5.833,10.016,12.131,9.932,20.951c-0.064,6.756-2.176,12.378-6.383,17.365c-1.928,2.286-4.162,4.315-6.283,6.437 c-249.348,249.354-498.698,498.708-748.066,748.042c-2.816,2.816-5.703,5.619-8.861,8.028 c-10.438,7.964-22.995,7.396-32.829-1.324c-1.743-1.545-3.319-3.278-4.969-4.928c-250.772-250.771-501.544-501.54-752.314-752.312 c-1.65-1.649-3.377-3.232-4.912-4.984c-8.179-9.34-8.437-23.472-0.529-33c1.908-2.299,4.196-4.283,6.317-6.403 C311.495,545.53,561.088,295.938,810.683,46.348c2.356-2.356,4.607-4.841,7.135-7.001c10.464-8.943,24.188-9.021,34.69-0.186 c2.542,2.139,4.79,4.631,7.146,6.987c110.776,110.77,221.555,221.537,332.288,332.349 C1194.759,381.315,1197.076,384.632,1200.104,388.292z M88.31,819.915c3.413,3.73,6.334,7.186,9.523,10.374 c241.315,241.354,482.652,482.687,723.987,724.021c12.711,12.71,14.206,12.691,27.209-0.312 c241.104-241.104,482.208-482.208,723.313-723.313c1.886-1.886,3.916-3.653,5.597-5.707c1.326-1.62,2.218-3.597,3.456-5.675 C1569.692,817.177,96.659,817.61,88.31,819.915z M1002.69,308.152c4.937,4.379,9.587,8.092,13.771,12.272 c120.222,120.144,240.397,240.334,360.579,360.517c2.121,2.121,4.193,4.295,6.376,6.351c22.633,21.32,49.327,31.345,80.395,27.605 c46.846-5.639,82.407-46.02,82.626-93.124c0.225-48.34-34.117-88.293-81.611-94.872c-6.479-0.897-12.997-1.511-20.996-2.427 c3.224-4.724,5.736-8.502,8.347-12.212c8.672-12.323,13.443-26.018,13.873-41.055c0.879-30.766-17.952-58.989-46.703-70.408 c-29.02-11.526-61.116-3.982-82.147,19.291c-2.764,3.058-5.59,6.06-9.245,10.017c-12.466-32.974-33.485-52.699-68.72-50.904 c-30.846,1.571-49.663,19.798-60.136,49.146c-3.353-3.201-6.224-5.834-8.976-8.585 c-114.307-114.286-228.6-228.586-342.905-342.874c-10.325-10.324-13.417-10.478-22.969-0.933 C682.091,218.01,539.95,360.077,397.827,502.162c-1.874,1.873-3.466,4.029-5.189,6.054c0.403,0.423,0.807,0.846,1.21,1.269 c78.695-44.642,157.39-89.284,236.438-134.126c45.61,27.979,90.976,55.806,136.343,83.634 C845.285,408.731,923.311,358.874,1002.69,308.152z"/>
    <path fill-rule="evenodd" clip-rule="evenodd" fill="#FFFF00" d="M88.31,819.915c8.349-2.305,1481.382-2.738,1493.084-0.611 c-1.238,2.078-2.13,4.055-3.456,5.675c-1.681,2.054-3.711,3.821-5.597,5.707c-241.104,241.104-482.208,482.209-723.313,723.313 c-13.003,13.003-14.498,13.021-27.209,0.312c-241.335-241.334-482.672-482.667-723.987-724.021 C94.645,827.101,91.723,823.646,88.31,819.915z M829.938,1199.605c22.979-1.195,40.552-2.354,57.118-9.481 c11.676-5.021,18.64-12.833,19.228-26.407c0.95-21.943,2.909-43.845,4.551-65.756c1.615-21.576,3.41-43.139,5.046-64.713 c2.289-30.208,4.333-60.435,6.844-90.624c0.851-10.229-3.021-17.729-11.576-22.462c-6.638-3.674-13.693-7.124-20.993-8.981 c-36.146-9.2-72.507-9.357-108.653-0.084c-7.913,2.03-15.569,5.836-22.698,9.943c-8.145,4.692-11.585,12.335-10.478,22.038 c1.056,9.254,1.49,18.58,2.195,27.874c3.17,41.823,6.322,83.647,9.514,125.469c1.849,24.23,3.842,48.45,5.586,72.688 c0.469,6.526,3.307,11.771,8.546,15.039c5.865,3.659,12.126,7.472,18.728,8.998 C806.764,1196.353,820.969,1198.107,829.938,1199.605z M835.006,1228.396c-43.948,0.157-79.366,35.742-78.905,79.669 c0.438,41.744,32.897,78.782,79.995,78.895c43.961,0.105,78.664-35.947,78.787-79.983 C915.004,1263.761,878.309,1227.044,835.006,1228.396z"/>
    <path fill-rule="evenodd" clip-rule="evenodd" fill="#FFFFFF" d="M1002.69,308.152c-79.38,50.722-157.405,100.579-236.063,150.84 c-45.367-27.828-90.732-55.655-136.343-83.634c-79.048,44.842-157.742,89.484-236.438,134.126 c-0.403-0.423-0.807-0.846-1.21-1.269c1.724-2.024,3.315-4.181,5.189-6.054C539.95,360.077,682.091,218.01,824.248,75.958 c9.552-9.545,12.644-9.392,22.969,0.933c114.306,114.288,228.599,228.588,342.905,342.874c2.752,2.751,5.623,5.384,8.976,8.585 c10.473-29.349,29.29-47.575,60.136-49.146c35.234-1.795,56.254,17.931,68.72,50.904c3.655-3.957,6.481-6.959,9.245-10.017 c21.031-23.273,53.128-30.817,82.147-19.291c28.751,11.419,47.582,39.643,46.703,70.408c-0.43,15.037-5.201,28.731-13.873,41.055 c-2.61,3.71-5.123,7.488-8.347,12.212c7.999,0.916,14.518,1.529,20.996,2.427c47.494,6.579,81.836,46.532,81.611,94.872 c-0.219,47.104-35.78,87.485-82.626,93.124c-31.067,3.739-57.762-6.285-80.395-27.605c-2.183-2.056-4.255-4.229-6.376-6.351 c-120.182-120.183-240.357-240.373-360.579-360.517C1012.277,316.244,1007.627,312.531,1002.69,308.152z M1374.479,621.53 c15.996,2.96,30.33-3.506,39.471-17.223c13.104-19.664,14.355-40.414,3.014-61.312c-7.221-13.306-19.721-20.711-33.132-19.405 c15.068,6.944,26.206,16.047,30.583,31.066c4.158,14.268,3.091,28.34-3.472,41.744 C1404.037,610.505,1390.685,616.371,1374.479,621.53z"/>
    <path fill-rule="evenodd" clip-rule="evenodd" d="M829.938,1199.605c-8.969-1.498-23.174-3.253-37.044-6.46 c-6.602-1.526-12.862-5.339-18.728-8.998c-5.239-3.269-8.077-8.513-8.546-15.039c-1.744-24.237-3.737-48.457-5.586-72.688 c-3.191-41.821-6.344-83.646-9.514-125.469c-0.705-9.294-1.14-18.62-2.195-27.874c-1.107-9.703,2.333-17.346,10.478-22.038 c7.129-4.107,14.785-7.913,22.698-9.943c36.146-9.273,72.507-9.116,108.653,0.084c7.3,1.857,14.355,5.308,20.993,8.981 c8.555,4.733,12.427,12.232,11.576,22.462c-2.511,30.189-4.555,60.416-6.844,90.624c-1.636,21.574-3.431,43.137-5.046,64.713 c-1.642,21.911-3.601,43.813-4.551,65.756c-0.588,13.574-7.552,21.386-19.228,26.407 C870.489,1197.251,852.916,1198.41,829.938,1199.605z"/>
    <path fill-rule="evenodd" clip-rule="evenodd" d="M835.006,1228.396c43.303-1.352,79.998,35.365,79.877,78.58 c-0.123,44.036-34.826,80.089-78.787,79.983c-47.098-0.112-79.558-37.15-79.995-78.895 C755.64,1264.138,791.058,1228.553,835.006,1228.396z"/>
    <path fill-rule="evenodd" clip-rule="evenodd" d="M1374.479,621.53c16.205-5.159,29.558-11.025,36.464-25.129 c6.563-13.404,7.63-27.477,3.472-41.744c-4.377-15.02-15.515-24.122-30.583-31.066c13.411-1.306,25.911,6.1,33.132,19.405 c11.342,20.897,10.091,41.647-3.014,61.312C1404.81,618.024,1390.476,624.49,1374.479,621.53z"/>
  </g>
</svg>
